<svg width="18" height="19" viewBox="0 0 18 19" fill="none" xmlns="http://www.w3.org/2000/svg">
<path d="M2.87735 3.549C1.38247 5.08685 0.461914 7.18593 0.461914 9.50002C0.461914 9.62047 0.464408 9.74034 0.469347 9.85957L2.06057 9.06396L2.87735 6.20523V3.549Z" fill="#032541"/>
<path d="M11.3687 6.57031C11.468 6.55294 11.5654 6.60913 11.6002 6.70374L12.4067 8.90102C12.4275 8.9576 12.4228 9.0204 12.3937 9.07321L8.90886 15.4093C8.87717 15.4669 8.84182 15.4911 8.81184 15.5035C8.77686 15.518 8.73076 15.5233 8.68123 15.5123C8.63171 15.5013 8.59214 15.4771 8.56656 15.4492C8.54463 15.4252 8.52282 15.3884 8.51845 15.3227L8.28144 11.7676C8.24701 11.2512 7.94145 10.7917 7.47852 10.5603L5.27426 9.45813C5.14707 9.39453 5.11957 9.22502 5.22012 9.12447L6.96543 7.37916C6.99573 7.34886 7.03463 7.32864 7.07684 7.32126L11.3687 6.57031Z" fill="#032541"/>
<path fill-rule="evenodd" clip-rule="evenodd" d="M4.12735 2.48769V6.3803L3.11141 9.93608L0.626812 11.1784C1.40656 15.0904 4.85924 18.0386 9.00051 18.0386C10.827 18.0386 12.5196 17.4651 13.908 16.4884L14.3599 12.4204L17.5354 9.24488C17.4004 4.64716 13.6309 0.961426 9.00051 0.961426C7.189 0.961426 5.50926 1.52554 4.12735 2.48769ZM12.7736 6.273C12.5305 5.61072 11.8482 5.21742 11.1532 5.33902L6.8614 6.08997C6.56595 6.14166 6.29363 6.28319 6.08155 6.49528L4.33623 8.24059C3.63238 8.94444 3.82494 10.131 4.71524 10.5762L6.91951 11.6783C6.98564 11.7114 7.02929 11.777 7.03421 11.8508L7.27122 15.4059C7.36813 16.8596 9.30201 17.2883 10.0041 16.0117L13.489 9.67561C13.6923 9.30594 13.7256 8.86634 13.5802 8.47029L12.7736 6.273Z" fill="#032541"/>
<path d="M17.3753 11.1727L15.5538 12.9942L15.3019 15.2621C16.3332 14.1349 17.066 12.73 17.3753 11.1727Z" fill="#032541"/>
</svg>
