<svg width="20" height="21" viewBox="0 0 20 21" fill="none" xmlns="http://www.w3.org/2000/svg">
<path d="M7.50038 12.3501H3.26704C2.75871 12.3501 2.29204 12.6084 2.02538 13.0418C1.75871 13.4668 1.73371 13.9751 1.95038 14.4251C2.97538 16.5251 4.82538 18.1751 7.02538 18.9501C7.17538 19.0001 7.34204 19.0334 7.50038 19.0334C7.79204 19.0334 8.08371 18.9418 8.33371 18.7668C8.72538 18.4918 8.95871 18.0418 8.95871 17.5668L8.96704 13.8168C8.96704 13.4251 8.81704 13.0584 8.54204 12.7834C8.25871 12.5084 7.89204 12.3501 7.50038 12.3501Z" fill="#032541"/>
<path d="M18.7329 8.50008C17.7996 4.40008 14.2079 1.54175 9.99961 1.54175C5.79128 1.54175 2.19961 4.40008 1.26628 8.50008C1.16628 8.93341 1.26628 9.37508 1.54961 9.72508C1.83295 10.0751 2.24961 10.2751 2.69961 10.2751H17.3079C17.7579 10.2751 18.1746 10.0751 18.4579 9.72508C18.7329 9.37508 18.8329 8.92508 18.7329 8.50008Z" fill="#032541"/>
<path d="M16.717 12.3916L12.5003 12.3833C12.1087 12.3833 11.742 12.5333 11.467 12.8083C11.192 13.0833 11.042 13.45 11.042 13.8416L11.0503 17.575C11.0503 18.05 11.2837 18.5 11.6753 18.775C11.9253 18.95 12.217 19.0416 12.5087 19.0416C12.667 19.0416 12.8253 19.0166 12.9753 18.9583C15.1587 18.1916 17.0087 16.55 18.0337 14.475C18.2503 14.0333 18.2253 13.5166 17.967 13.1C17.692 12.65 17.2253 12.3916 16.717 12.3916Z" fill="#032541"/>
</svg>
