<svg width="18" height="15" viewBox="0 0 18 15" fill="none" xmlns="http://www.w3.org/2000/svg">
<path d="M10.6663 9.16659C12.9675 9.16659 14.833 7.30111 14.833 4.99992C14.833 2.69873 12.9675 0.833252 10.6663 0.833252C8.36511 0.833252 6.49963 2.69873 6.49963 4.99992C6.49963 7.30111 8.36511 9.16659 10.6663 9.16659Z" fill="#032541"/>
<path d="M5.79579 14.6059C5.55316 14.997 5.03942 15.1173 4.64834 14.8747C4.25726 14.6321 4.13692 14.1183 4.37956 13.7272C5.52073 11.8879 7.85529 9.99992 10.6663 9.99992C13.4773 9.99992 15.8119 11.8879 16.953 13.7272C17.1957 14.1183 17.0753 14.6321 16.6843 14.8747C16.2932 15.1173 15.7795 14.997 15.5368 14.6059C14.6017 13.0987 12.7366 11.6666 10.6663 11.6666C8.59602 11.6666 6.73092 13.0987 5.79579 14.6059Z" fill="#032541"/>
<path d="M5.58117 2.96635C5.78381 3.37958 5.61309 3.87883 5.19986 4.08147C4.44264 4.45279 3.99963 5.12641 3.99963 5.83325C3.99963 6.54009 4.44264 7.21372 5.19986 7.58504C5.61309 7.78767 5.78381 8.28693 5.58117 8.70016C5.37854 9.11338 4.87928 9.2841 4.46606 9.08147C3.23539 8.47798 2.33296 7.27786 2.33296 5.83325C2.33296 4.38864 3.23539 3.18852 4.46606 2.58504C4.87928 2.3824 5.37854 2.55312 5.58117 2.96635Z" fill="#032541"/>
<path d="M2.46246 14.6059C2.21982 14.997 1.70609 15.1173 1.31501 14.8747C0.923928 14.6321 0.803591 14.1183 1.04623 13.7272C1.52881 12.9494 2.30092 12.3002 3.16232 11.7965C3.55962 11.5642 4.07003 11.698 4.30234 12.0953C4.53466 12.4926 4.40092 13.003 4.00362 13.2353C3.28386 13.6562 2.7543 14.1355 2.46246 14.6059Z" fill="#032541"/>
</svg>
