<svg width="18" height="15" viewBox="0 0 18 15" fill="none" xmlns="http://www.w3.org/2000/svg">
<path d="M3.16699 0.833252H14.8337C16.2143 0.833252 17.3335 1.95242 17.3337 3.33303C17.2306 3.333 17.1257 3.35223 17.0242 3.39285L9.61931 6.3548C9.22196 6.51374 8.77869 6.51374 8.38134 6.3548L0.976484 3.39285C0.874914 3.35223 0.770086 3.333 0.666992 3.33303C0.667112 1.95242 1.78635 0.833252 3.16699 0.833252Z" fill="#032541"/>
<path d="M0.666992 5.06411V11.6666C0.666992 13.0473 1.78628 14.1666 3.16699 14.1666H14.8337C16.2144 14.1666 17.3337 13.0473 17.3337 11.6666V5.06411L10.2383 7.90226C9.44359 8.22014 8.55706 8.22014 7.76236 7.90226L0.666992 5.06411Z" fill="#032541"/>
</svg>
