<svg width="15" height="16" viewBox="0 0 15 16" fill="none" xmlns="http://www.w3.org/2000/svg">
<path d="M0.657905 1.87529L1.10418 1.42901C2.08049 0.4527 3.66341 0.452699 4.63972 1.42901L5.41378 2.20307C6.20957 2.99886 6.37553 4.22829 5.81924 5.2066L5.7735 5.28704C5.32781 6.07083 5.32993 7.04073 5.85855 7.77116C6.12191 8.13506 6.41944 8.51203 6.70211 8.79471C6.98478 9.07738 7.36175 9.37491 7.72566 9.63827C8.45609 10.1669 9.42599 10.169 10.2098 9.72332L10.2902 9.67758C11.2685 9.12128 12.498 9.28725 13.2937 10.083L14.0678 10.8571C15.0441 11.8334 15.0441 13.4163 14.0678 14.3926L13.6215 14.8389C13.1527 15.3078 12.514 15.569 11.8693 15.414C10.4916 15.0829 7.83666 14.054 4.63972 10.8571C1.44277 7.66015 0.413912 5.00523 0.0828001 3.6275C-0.0721378 2.98282 0.189064 2.34413 0.657905 1.87529Z" fill="#032541"/>
</svg>
