<svg width="20" height="21" viewBox="0 0 20 21" fill="none" xmlns="http://www.w3.org/2000/svg">
<path d="M17.5749 6.31676C16.8665 5.53343 15.6915 5.14176 13.9665 5.14176H13.7665V5.10843C13.7665 3.70843 13.7665 1.9751 10.6332 1.9751H9.36653C6.2332 1.9751 6.2332 3.70843 6.2332 5.10843V5.14176H6.0332C4.3082 5.14176 3.12487 5.53343 2.42487 6.31676C1.59987 7.24176 1.62487 8.46676 1.7082 9.30843L1.71654 9.36677L1.77062 9.99774C1.78381 10.1517 1.86731 10.291 1.9971 10.3749C2.22344 10.5211 2.46235 10.6728 2.69154 10.8001C2.8082 10.8751 2.9332 10.9418 3.0582 11.0084C3.99987 11.5251 5.0082 11.9334 6.04153 12.2168C6.06653 14.3751 7.8332 16.1251 9.99987 16.1251C12.1832 16.1251 13.9582 14.3501 13.9582 12.1668V12.1334C15.0082 11.8168 16.0165 11.3751 16.9582 10.8251C17.0082 10.8001 17.0415 10.7751 17.0832 10.7501C17.4014 10.5772 17.731 10.3526 18.034 10.1383C18.1504 10.056 18.2253 9.9274 18.2407 9.78569L18.2915 9.31676C18.2999 9.26676 18.2999 9.2251 18.3082 9.16676C18.3749 8.33343 18.3582 7.18343 17.5749 6.31676ZM7.42487 5.10843C7.42487 3.69176 7.42487 3.15843 9.36653 3.15843H10.6332C12.5749 3.15843 12.5749 3.69176 12.5749 5.10843V5.14176H7.42487V5.10843ZM9.99987 14.8751C8.62487 14.8751 7.4832 13.8418 7.31653 12.5084C7.29987 12.4001 7.29153 12.2834 7.29153 12.1668C7.29153 10.6751 8.5082 9.45843 9.99987 9.45843C11.4915 9.45843 12.7082 10.6751 12.7082 12.1668C12.7082 12.2668 12.6999 12.3584 12.6915 12.4501V12.4584C12.5415 13.8168 11.3915 14.8751 9.99987 14.8751Z" fill="#032541"/>
<path d="M9.52507 13.8583C9.36673 13.8583 9.2084 13.8 9.0834 13.675L8.2584 12.8583C8.01673 12.6166 8.01673 12.2166 8.2584 11.975C8.50007 11.7333 8.90007 11.7333 9.14173 11.975L9.54173 12.375L10.8834 11.1416C11.1334 10.9083 11.5334 10.925 11.7667 11.175C12.0001 11.425 11.9834 11.825 11.7334 12.0583L9.9584 13.7C9.82507 13.8 9.67507 13.8583 9.52507 13.8583Z" fill="#032541"/>
<path d="M17.535 11.9426C17.7422 11.8274 18.0111 11.9943 17.9895 12.2304L17.6933 15.4676C17.5183 17.1342 16.835 18.8342 13.1683 18.8342H6.81829C3.15163 18.8342 2.46829 17.1342 2.30163 15.4759L2.0134 12.3898C1.99103 12.1502 2.24728 11.9883 2.45996 12.1009C3.10996 12.4592 3.78496 12.7759 4.47663 13.0259C4.73496 13.1176 4.91829 13.3342 4.99329 13.6009C5.61829 15.7676 7.63496 17.3759 10.0016 17.3759C12.41 17.3759 14.4433 15.7342 15.035 13.4842C15.1016 13.2176 15.285 13.0009 15.5433 12.9009C16.2433 12.6259 16.91 12.3009 17.535 11.9426Z" fill="#032541"/>
</svg>
